# WaveFront *.obj file (generated by CINEMA 4D)

mtllib ./box.mtl

v -100.00000000000000 -100.00000000000000 -100.00000000000000
v -100.00000000000000 100.00000000000000 -100.00000000000000
v 100.00000000000000 -100.00000000000000 -100.00000000000000
v 100.00000000000000 100.00000000000000 -100.00000000000000
v 100.00000000000000 -100.00000000000000 100.00000000000000
v 100.00000000000000 100.00000000000000 100.00000000000000
v -100.00000000000000 -100.00000000000000 100.00000000000000
v -100.00000000000000 100.00000000000000 100.00000000000000
# 8 vertices

vn 0.00000000000000 0.00000000000000 -1.00000000000000
vn 1.00000000000000 0.00000000000000 0.00000000000000
vn 0.00000000000000 0.00000000000000 1.00000000000000
vn -1.00000000000000 0.00000000000000 0.00000000000000
vn 0.00000000000000 1.00000000000000 0.00000000000000
vn 0.00000000000000 -1.00000000000000 0.00000000000000
# 6 normals

vt 0.00000000000000 0.00000000000000 0.00000000000000
vt 0.00000000000000 1.00000000000000 0.00000000000000
vt 1.00000000000000 1.00000000000000 0.00000000000000
vt 1.00000000000000 0.00000000000000 0.00000000000000
# 4 texture coordinates

o Cube
usemtl default
f 1/1/1 2/2/1 4/3/1 3/4/1
f 3/1/2 4/2/2 6/3/2 5/4/2
f 5/1/3 6/2/3 8/3/3 7/4/3
f 7/1/4 8/2/4 2/3/4 1/4/4
f 2/1/5 8/2/5 6/3/5 4/4/5
f 7/1/6 1/2/6 3/3/6 5/4/6

